HIERARCHY
ROOT Hips
{
 OFFSET 0.000000 0.000000 0.000000
 CHANNELS 6 Xposition Yposition Zposition Yrotation Xrotation Zrotation
 JOINT Chest
 {
  OFFSET 0.000000 9.581000 -0.001100
  CHANNELS 3 Yrotation Xrotation Zrotation
  JOINT Chest2
  {
   OFFSET 0.000000 9.561100 0.002200
   CHANNELS 3 Yrotation Xrotation Zrotation
   JOINT Chest3
   {
    OFFSET 0.000000 9.521100 0.000000
    CHANNELS 3 Yrotation Xrotation Zrotation
    JOINT Chest4
    {
     OFFSET 0.000000 9.511400 0.000000
     CHANNELS 3 Yrotation Xrotation Zrotation
     JOINT Neck
     {
      OFFSET 0.000000 14.375100 0.000000
      CHANNELS 3 Yrotation Xrotation Zrotation
      JOINT Head
      {
       OFFSET 0.000000 8.901200 0.004600
       CHANNELS 3 Yrotation Xrotation Zrotation
       End Site
       {
        OFFSET 0.000000 16.962200 0.002400
       }
      }
     }
     JOINT RightCollar
     {
      OFFSET -2.920100 9.518800 0.000000
      CHANNELS 3 Yrotation Xrotation Zrotation
      JOINT RightShoulder
      {
       OFFSET -13.664500 0.000000 0.000000
       CHANNELS 3 Yrotation Xrotation Zrotation
       JOINT RightElbow
       {
        OFFSET 0.000000 -29.999200 0.000000
        CHANNELS 3 Yrotation Xrotation Zrotation
        JOINT RightWrist
        {
         OFFSET 0.000000 -24.253600 0.000000
         CHANNELS 3 Yrotation Xrotation Zrotation
         End Site
         {
          OFFSET 0.000000 -17.918900 0.000000
         }
        }
       }
      }
     }
     JOINT LeftCollar
     {
      OFFSET 2.920100 9.518800 0.000000
      CHANNELS 3 Yrotation Xrotation Zrotation
      JOINT LeftShoulder
      {
       OFFSET 13.664500 0.000000 0.000000
       CHANNELS 3 Yrotation Xrotation Zrotation
       JOINT LeftElbow
       {
        OFFSET 0.000000 -29.999200 0.000000
        CHANNELS 3 Yrotation Xrotation Zrotation
        JOINT LeftWrist
        {
         OFFSET 0.000000 -24.253600 0.000000
         CHANNELS 3 Yrotation Xrotation Zrotation
         End Site
         {
          OFFSET 0.000000 -17.918900 0.000000
         }
        }
       }
      }
     }
    }
   }
  }
 }
 JOINT RightHip
 {
  OFFSET -7.797300 0.005300 0.000500
  CHANNELS 3 Yrotation Xrotation Zrotation
  JOINT RightKnee
  {
   OFFSET 0.000000 -40.663400 -0.000500
   CHANNELS 3 Yrotation Xrotation Zrotation
   JOINT RightAnkle
   {
    OFFSET 0.000000 -39.523700 -0.000900
    CHANNELS 3 Yrotation Xrotation Zrotation
    JOINT RightToe
    {
     OFFSET 0.000000 -6.418000 14.485300
     CHANNELS 3 Yrotation Xrotation Zrotation
     End Site
     {
      OFFSET 0.000000 -1.465200 6.326400
     }
    }
   }
  }
 }
 JOINT LeftHip
 {
  OFFSET 7.797300 0.005300 0.000500
  CHANNELS 3 Yrotation Xrotation Zrotation
  JOINT LeftKnee
  {
   OFFSET 0.000000 -40.663400 -0.000500
   CHANNELS 3 Yrotation Xrotation Zrotation
   JOINT LeftAnkle
   {
    OFFSET 0.000000 -39.523700 -0.000900
    CHANNELS 3 Yrotation Xrotation Zrotation
    JOINT LeftToe
    {
     OFFSET 0.000000 -6.418000 14.485300
     CHANNELS 3 Yrotation Xrotation Zrotation
     End Site
     {
      OFFSET 0.000000 -1.465200 6.326400
     }
    }
   }
  }
 }
}
MOTION
Frames: 13
Frame Time: 0.008333
0.000000 86.422400 0.000000 0.000000 -5.767877 0.000000 0.000000 11.653817 0.000000 0.000000 -5.885947 0.000000 0.000000 -0.000000 0.000000 0.000000 -0.000000 0.000000 0.000000 12.528835 0.000000 0.000000 0.711642 0.000000 0.000000 -0.000000 0.000000 0.000000 0.000000 -90.000000 0.000000 -2.309062 0.000000 0.000000 2.309062 0.000000 0.000000 -0.000000 0.000000 0.000000 -0.000000 90.000000 0.000000 -2.309062 0.000000 0.000000 2.309062 0.000000 0.000000 8.520406 0.000000 0.000000 1.905762 0.000000 -0.000000 -4.658285 0.000000 0.000000 -0.000000 0.000000 0.000000 8.520406 0.000000 0.000000 1.905762 0.000000 -0.000000 -4.658285 0.000000 0.000000 -0.000000 0.000000
-18.867238 126.897142 17.772789 -174.143869 -48.590931 -5.099317 -0.332398 26.960688 0.888764 -0.085857 4.627256 0.159909 -0.130290 7.333483 0.250877 -0.288485 22.062504 0.746120 -4.209108 18.000815 -3.477627 -3.659056 -6.631340 -2.748677 1.468671 1.332757 1.222649 4.586918 -7.780456 -8.483812 -107.912820 -67.636389 154.652051 9.010415 5.934862 -32.158364 -9.845008 -1.131616 0.077621 -5.793874 -9.279413 10.354269 66.669226 -59.431525 -110.369237 -1.048500 -4.246342 17.884966 -18.811873 -14.534012 2.157581 -9.052584 66.873773 6.231963 16.261714 -9.740748 -1.728057 0.000858 -0.006181 0.000380 15.121152 -6.245185 1.850141 179.636800 84.436391 174.479338 -10.795898 -13.882208 4.978729 0.000912 -0.002635 0.000404
-18.866614 126.896042 17.773175 -174.143045 -48.573298 -5.103996 -0.326427 26.969840 0.901548 -0.085864 4.653182 0.168593 -0.129266 7.314253 0.246698 -0.291099 22.054281 0.750643 -4.200334 17.990217 -3.480797 -3.648719 -6.638973 -2.753752 1.463290 1.324834 1.228530 4.554906 -7.772797 -8.459413 -107.834196 -67.610553 154.593325 8.991165 5.956186 -32.133024 -9.852164 -1.160238 0.085525 -5.807231 -9.269521 10.385196 66.684810 -59.462904 -110.375988 -1.088475 -4.263622 17.910905 -18.822387 -14.542814 2.169031 -9.042668 66.867833 6.242016 16.267005 -9.742092 -1.735572 0.001916 -0.003374 0.000849 15.123316 -6.263534 1.848399 179.673226 84.434386 174.521933 -10.792710 -13.890156 4.987565 0.001124 -0.002125 0.000498
-18.866075 126.895570 17.773034 -174.146163 -48.560670 -5.105180 -0.322530 26.977426 0.911460 -0.088420 4.644654 0.166651 -0.125540 7.329518 0.252756 -0.295136 22.035102 0.745288 -4.155589 18.017286 -3.477745 -3.668738 -6.666745 -2.753042 1.461828 1.324085 1.232617 4.535350 -7.749126 -8.421496 -107.825727 -67.597052 154.600117 9.005048 5.979530 -32.112520 -9.859368 -1.167387 0.094905 -5.865219 -9.258077 10.473349 66.790318 -59.435235 -110.431654 -1.130120 -4.290888 17.944037 -18.826372 -14.549305 2.177692 -9.040555 66.863696 6.246375 16.277656 -9.742949 -1.749251 0.002742 -0.003173 0.001215 15.124840 -6.276743 1.849755 179.710538 84.432901 174.561985 -10.791871 -13.892836 4.988538 0.000983 -0.001647 0.000435
-18.865343 126.895409 17.772616 -174.153935 -48.551605 -5.103330 -0.323731 26.988419 0.917727 -0.085280 4.636279 0.164817 -0.141448 7.370447 0.268131 -0.288140 22.017908 0.739772 -4.137923 17.998228 -3.491866 -3.638368 -6.683829 -2.773668 1.465061 1.293826 1.220502 4.550574 -7.745955 -8.414937 -107.824366 -67.590604 154.583138 8.946148 5.996951 -32.095483 -9.864109 -1.200931 0.092157 -5.897321 -9.255768 10.516770 66.844291 -59.446173 -110.454721 -1.130064 -4.320645 17.964902 -18.826399 -14.552293 2.189488 -9.046718 66.858761 6.241002 16.271411 -9.747696 -1.754964 0.001063 -0.003160 0.000471 15.127620 -6.285271 1.851939 179.754449 84.433913 174.608185 -10.789147 -13.896097 4.986327 0.000668 -0.000446 0.000296
-18.864842 126.895007 17.772447 -174.167140 -48.541905 -5.094642 -0.323953 26.993783 0.922992 -0.086493 4.639516 0.165504 -0.152253 7.375139 0.267236 -0.310461 22.053970 0.755550 -4.113055 17.944685 -3.527441 -3.579561 -6.721449 -2.820797 1.494748 1.247167 1.195984 4.576379 -7.751432 -8.423356 -107.827947 -67.583673 154.566010 8.908722 6.013581 -32.080841 -9.840457 -1.257353 0.068877 -5.907172 -9.260970 10.537370 66.861290 -59.476752 -110.458770 -1.132496 -4.352539 17.985351 -18.828957 -14.554580 2.201827 -9.063409 66.853423 6.226054 16.247486 -9.765808 -1.772813 -0.003444 -0.004999 -0.001526 15.133539 -6.295869 1.851818 179.773016 84.432450 174.630042 -10.792792 -13.895650 4.980892 0.000257 0.000056 0.000114
-18.863973 126.894948 17.772004 -174.174086 -48.535394 -5.091393 -0.356129 27.017176 0.919142 -0.072680 4.627232 0.159059 -0.154856 7.381449 0.269488 -0.315514 22.052357 0.751848 -4.103269 17.927010 -3.539394 -3.560412 -6.749259 -2.841036 1.511770 1.237732 1.201501 4.587701 -7.761113 -8.444674 -107.790871 -67.554870 154.527578 8.924957 6.035723 -32.076148 -9.831096 -1.273447 0.060466 -5.919052 -9.264818 10.561234 66.872492 -59.501583 -110.459174 -1.238977 -4.408179 18.041489 -18.837648 -14.558471 2.202740 -9.051231 66.851830 6.232939 16.291646 -9.748206 -1.779268 0.001530 -0.002348 0.000678 15.133481 -6.303571 1.854886 179.789830 84.432391 174.645948 -10.796886 -13.895423 4.979948 -0.000765 0.000086 -0.000339
-18.863743 126.894509 17.771910 -174.181930 -48.526870 -5.081680 -0.370045 27.025307 0.915300 -0.077186 4.629287 0.158402 -0.156321 7.386586 0.269503 -0.326918 22.057434 0.748958 -4.093897 17.900381 -3.554195 -3.546765 -6.778504 -2.858656 1.527925 1.217893 1.197595 4.633841 -7.768331 -8.463793 -107.795820 -67.529284 154.521943 8.910523 6.066272 -32.079164 -9.810831 -1.302202 0.047748 -5.991934 -9.252927 10.642068 66.966017 -59.475185 -110.497000 -1.300691 -4.462074 18.084187 -18.852862 -14.559656 2.207499 -9.054611 66.845962 6.225998 16.285660 -9.760187 -1.797881 0.001494 -0.002256 0.000662 15.132945 -6.311868 1.849460 179.773504 84.432700 174.628987 -10.799082 -13.894149 4.976428 -0.000956 0.000668 -0.000424
-18.863245 126.894063 17.771853 -174.190623 -48.518548 -5.071179 -0.374777 27.025075 0.911532 -0.086799 4.641186 0.161691 -0.150165 7.378268 0.265239 -0.351496 22.080958 0.753228 -4.083791 17.865959 -3.571304 -3.537540 -6.807967 -2.873443 1.549540 1.204609 1.200024 4.687340 -7.794616 -8.507743 -107.807250 -67.514152 154.506179 8.852708 6.116604 -32.034279 -9.794894 -1.327480 0.040987 -6.026426 -9.257365 10.688293 67.016922 -59.460946 -110.521162 -1.343134 -4.513843 18.124605 -18.850165 -14.566525 2.208565 -9.068914 66.843712 6.215678 16.288588 -9.768391 -1.807886 0.000503 -0.004254 0.000223 15.127841 -6.321625 1.849343 179.850386 84.431620 174.696235 -10.795676 -13.889720 4.973542 -0.000250 0.000129 -0.000111
-18.862215 126.894131 17.771384 -174.199152 -48.514178 -5.062685 -0.377823 27.028498 0.910446 -0.113578 4.668304 0.169699 -0.127949 7.354978 0.254723 -0.371094 22.096468 0.752894 -4.080558 17.838583 -3.580800 -3.531689 -6.837900 -2.884155 1.571943 1.182770 1.188993 4.772685 -7.815875 -8.557942 -107.802017 -67.487694 154.422332 8.839731 6.135739 -32.026126 -9.786486 -1.340881 0.039796 -6.037923 -9.268652 10.710268 67.031383 -59.457438 -110.528877 -1.382421 -4.569448 18.170284 -18.855200 -14.569653 2.208730 -9.063315 66.842076 6.215405 16.303984 -9.764848 -1.808599 0.000786 -0.003746 0.000348 15.123736 -6.327071 1.846662 179.786881 84.432747 174.629451 -10.796308 -13.885592 4.962593 0.000301 -0.000279 0.000133
-18.860817 126.894656 17.770547 -174.203544 -48.513020 -5.058413 -0.394960 27.039497 0.903976 -0.104997 4.664426 0.168370 -0.140668 7.366797 0.256329 -0.378261 22.105434 0.749534 -4.069779 17.809142 -3.590098 -3.529596 -6.853176 -2.888319 1.594517 1.159911 1.179196 4.793729 -7.823915 -8.574888 -107.810114 -67.478346 154.414827 8.808404 6.189811 -31.981922 -9.795615 -1.326989 0.032395 -6.015016 -9.310893 10.723853 67.012601 -59.464501 -110.521912 -1.413327 -4.631238 18.222140 -18.869785 -14.568172 2.211825 -9.046339 66.839530 6.217449 16.312013 -9.763960 -1.805000 0.000377 -0.003471 0.000167 15.115737 -6.328882 1.845558 179.762931 84.432630 174.601035 -10.793056 -13.884048 4.952812 0.000064 0.000177 0.000028
-18.859314 126.895178 17.769727 -174.207010 -48.511803 -5.054411 -0.409010 27.052227 0.901037 -0.099237 4.659267 0.165309 -0.167720 7.405653 0.263912 -0.373204 22.089033 0.735941 -4.060144 17.777743 -3.596344 -3.527827 -6.869294 -2.891600 1.620503 1.151670 1.181869 4.829046 -7.850494 -8.623563 -107.822874 -67.459446 154.399954 8.765867 6.259146 -31.934621 -9.785533 -1.332832 0.019572 -6.025760 -9.327379 10.766087 67.023394 -59.449027 -110.536980 -1.436369 -4.698270 18.280988 -18.901248 -14.565662 2.215928 -9.008111 66.838694 6.232100 16.316083 -9.763902 -1.808410 0.001959 -0.003127 0.000868 15.112434 -6.331265 1.842958 179.738425 84.431427 174.578648 -10.791243 -13.882920 4.943526 0.000110 0.001016 0.000049
-18.858805 126.895126 17.769429 -174.220718 -48.506881 -5.035712 -0.418397 27.061323 0.891830 -0.101275 4.663147 0.164587 -0.162817 7.399648 0.259294 -0.382876 22.100757 0.733158 -4.065486 17.754470 -3.593022 -3.528168 -6.903033 -2.892289 1.638997 1.136171 1.179038 4.854190 -7.864801 -8.662444 -107.827460 -67.436372 154.382112 8.730137 6.333632 -31.883139 -9.785618 -1.323134 0.004315 -6.056056 -9.336167 10.813568 67.064270 -59.433248 -110.560108 -1.453159 -4.765529 18.345710 -18.900148 -14.574291 2.209688 -9.000602 66.842402 6.237273 16.320405 -9.764888 -1.812495 0.002733 -0.002446 0.001211 15.115745 -6.335647 1.832933 179.718970 84.431091 174.558512 -10.792391 -13.880986 4.938933 -0.000242 0.001678 -0.000107
